:SAMPLES-PER-SECOND 30
:FULLY-SPECIFIED
:DEGREES
1028
root  41.3799 38.9394 -12.7859 -1.68164 0.440826 4.03874
RightUpLeg  -0.838232 23.7101 -3.39504
RightLeg  27.9613 6.85685 3.70122
RightFoot  -20.2826 -0.830985 -8.85939
RightToes  0.000482159 0.542163 -0.142577
Spine  8.22548 -1.22452 3.2677
Spine1  5.97972 -1.23984 0.93483
HEad  -5.00061 8.6799 -4.80065
LeftShoulder1  7.8116 -11.5314 -45.2795
LeftArm  -13.4868 20.3741 -29.2449
LeftForeArm  45.7278 -42.0701 -7.13714
LeftHand  -0.25398 0.0180481 5.50724
RightShoulder  4.20357 7.58392 31.9683
RightArm  3.60511 -24.5624 36.3665
RightForeArm  -3.14941 27.9114 6.19516
RightHand  -1.66416 3.96928 -20.758
LeftUpLeg  -16.007 -11.9897 11.3528
LeftLeg  14.1506 0.0765213 0.869812
LeftFoot  -7.02403 0.251962 -5.49115
LeftToes  1.06246e-005 4.65854e-005 -8.18502e-006
1029
root  42.9863 38.7472 -12.1376 -1.89026 -5.9588 3.73102
RightUpLeg  -1.01924 26.4297 -6.07951
RightLeg  27.9502 8.24857 4.49514
RightFoot  -21.5876 -0.777796 -7.05519
RightToes  0.000482159 0.542163 -0.142577
Spine  9.21579 -1.34989 3.3188
Spine1  5.82327 -1.34545 0.741875
HEad  -6.24036 8.64008 -4.51221
LeftShoulder1  7.84721 -11.6818 -45.0262
LeftArm  -13.1948 20.5497 -29.7686
LeftForeArm  44.9772 -41.6343 -7.05067
LeftHand  -0.25398 0.0180481 5.50724
RightShoulder  4.14931 7.4784 31.838
RightArm  3.33836 -23.0197 34.7149
RightForeArm  -5.03107 27.8481 6.27697
RightHand  -1.82996 4.34315 -21.9237
LeftUpLeg  -14.9997 -9.28058 10.7539
LeftLeg  13.3097 -4.83539 0.276868
LeftFoot  -6.11014 0.473499 -9.41506
LeftToes  1.06246e-005 4.65854e-005 -8.18502e-006
1030
root  44.6019 38.5801 -11.5026 -1.78162 -11.6841 4.00041
RightUpLeg  -2.3548 27.9851 -9.86758
RightLeg  28.1068 8.79562 4.84072
RightFoot  -22.1109 -0.498262 -3.68131
RightToes  0.000482159 0.542163 -0.142577
Spine  10.51 -1.38428 2.13806
Spine1  5.13683 -1.59591 1.21984
HEad  -7.2855 7.28127 -3.6176
LeftShoulder1  7.91472 -11.7828 -45.1178
LeftArm  -12.2537 20.0984 -29.9551
LeftForeArm  44.3231 -40.9158 -6.87769
LeftHand  -0.25398 0.0180481 5.50724
RightShoulder  4.12014 7.38121 31.9074
RightArm  2.54399 -21.5366 32.9955
RightForeArm  -6.64175 27.7793 6.34225
RightHand  -1.86558 4.25846 -22.5161
LeftUpLeg  -15.2602 -5.02149 9.14329
LeftLeg  16.0123 -4.7707 -0.852695
LeftFoot  -4.52472 0.761956 -12.3808
LeftToes  1.06246e-005 4.65854e-005 -8.18502e-006
1031
root  46.1478 38.4878 -10.9187 -1.78339 -17.0912 5.14743
RightUpLeg  -4.68539 27.7343 -14.4941
RightLeg  28.7529 6.93816 3.87541
RightFoot  -21.129 -0.11577 0.386358
RightToes  0.000482159 0.542163 -0.142577
Spine  12.0041 -1.10701 -0.553133
Spine1  4.3418 -1.77749 2.18639
HEad  -8.23778 4.69015 -1.98569
LeftShoulder1  7.9747 -11.8608 -45.2339
LeftArm  -11.2678 19.0962 -29.9466
LeftForeArm  43.7556 -39.7696 -6.58236
LeftHand  -0.25398 0.0180481 5.50724
RightShoulder  4.21832 7.51076 32.3538
RightArm  0.412291 -20.1656 31.8301
RightForeArm  -7.46689 27.1719 6.23847
RightHand  -1.91046 4.3777 -22.7696
LeftUpLeg  -16.0294 1.25526 5.90866
LeftLeg  19.8204 -4.16726 -1.37644
LeftFoot  -4.51982 0.746751 -11.9893
LeftToes  1.06246e-005 4.65854e-005 -8.18502e-006
1032
root  47.6141 38.557 -10.3468 -2.08533 -22.8515 6.714
RightUpLeg  -7.54024 24.785 -18.6216
RightLeg  29.7 1.60425 0.750549
RightFoot  -18.1899 0.0471482 2.77916
RightToes  0.000482159 0.542163 -0.142577
Spine  13.0913 -0.650056 -2.85786
Spine1  3.81274 -1.52696 2.09859
HEad  -8.77608 1.28333 0.127514
LeftShoulder1  8.01864 -12.0298 -44.9798
LeftArm  -10.6156 18.231 -29.6471
LeftForeArm  42.7839 -38.4142 -6.26153
LeftHand  -0.25398 0.0180481 5.50724
RightShoulder  4.371 7.771 32.8262
RightArm  -2.72863 -19.1049 32.3577
RightForeArm  -8.15299 25.6491 5.91237
RightHand  -2.23087 5.52543 -23.7486
LeftUpLeg  -16.3001 7.87398 2.19827
LeftLeg  22.0314 -4.35963 -1.59481
LeftFoot  -5.79666 0.480143 -9.17416
LeftToes  1.06246e-005 4.65854e-005 -8.18502e-006
1033
root  49.0351 38.8158 -9.71001 -2.44788 -29.2093 7.73746
RightUpLeg  -10.405 18.8452 -20.4416
RightLeg  30.8413 -5.26656 -3.62649
RightFoot  -14.1246 -0.0352214 2.22125
RightToes  0.000482159 0.542163 -0.142577
Spine  13.5669 -0.36044 -2.80171
Spine1  3.4399 -0.804185 0.306777
HEad  -8.5819 -2.30934 1.71975
LeftShoulder1  8.05355 -12.2377 -44.5618
LeftArm  -10.2744 18.0609 -28.8214
LeftForeArm  41.2087 -37.2725 -6.04314
LeftHand  -0.25398 0.0180481 5.50724
RightShoulder  4.44676 7.92253 32.9749
RightArm  -5.24142 -18.505 34.5848
RightForeArm  -9.50874 23.7258 5.56277
RightHand  -2.76459 7.22391 -25.4574
LeftUpLeg  -15.3888 14.2868 -0.698899
LeftLeg  21.3347 -4.39008 -1.55625
LeftFoot  -6.48798 0.329117 -6.88308
LeftToes  1.06246e-005 4.65854e-005 -8.18502e-006
1034
root  50.3591 39.1388 -9.02247 -2.67719 -35.6426 8.03101
RightUpLeg  -12.8117 11.1314 -19.5785
RightLeg  32.5383 -9.37396 -6.62179
RightFoot  -11.3997 -0.0798885 0.796805
RightToes  0.000482159 0.542163 -0.142577
Spine  13.5986 -0.257265 -1.37749
Spine1  3.23948 -0.0477874 -1.85737
HEad  -7.97669 -5.37438 1.96444
LeftShoulder1  8.02971 -12.239 -44.4203
LeftArm  -10.2638 18.4249 -27.7624
LeftForeArm  39.2139 -36.3335 -5.90862
LeftHand  -0.25398 0.0180481 5.50724
RightShoulder  4.44902 7.94279 32.9255
RightArm  -5.53558 -18.2784 37.0993
RightForeArm  -10.6718 22.4289 5.45057
RightHand  -2.93747 7.73898 -25.9723
LeftUpLeg  -13.7583 19.0569 -2.38203
LeftLeg  18.9686 -2.35565 -1.15804
LeftFoot  -6.24048 0.295674 -5.80033
LeftToes  1.06246e-005 4.65854e-005 -8.18502e-006
1035
root  51.5247 39.4241 -8.35749 -2.88617 -41.5402 8.1236
RightUpLeg  -14.4065 3.92923 -17.1334
RightLeg  35.0137 -9.3951 -7.24061
RightFoot  -10.3622 -0.0847771 1.51052
RightToes  0.000482159 0.542163 -0.142577
Spine  13.2231 -0.156505 -0.643963
Spine1  3.46858 0.3397 -2.68803
HEad  -7.57222 -7.38499 1.34001
LeftShoulder1  7.89488 -11.9451 -44.5078
LeftArm  -10.7184 18.9681 -27.1549
LeftForeArm  36.8519 -35.1525 -5.73773
LeftHand  -0.25398 0.0180481 5.50724
RightShoulder  4.44127 7.91112 32.9653
RightArm  -3.43565 -18.2776 38.8038
RightForeArm  -9.57398 22.3015 5.41956
RightHand  -2.32575 5.977 -23.7118
LeftUpLeg  -12.0371 19.3075 -2.8346
LeftLeg  16.4955 3.74852 -1.1993
LeftFoot  -5.80594 0.248478 -4.42123
LeftToes  1.06246e-005 4.65854e-005 -8.18502e-006
1036
root  52.534 39.6613 -7.75741 -3.31335 -46.9312 8.44659
RightUpLeg  -15.2068 -1.52189 -14.2252
RightLeg  38.1339 -7.97505 -6.92751
RightFoot  -9.08696 -0.13231 3.55582
RightToes  0.000482159 0.542163 -0.142577
Spine  12.5975 0.00803618 -1.03945
Spine1  3.91828 0.421382 -2.29889
HEad  -7.51477 -8.22703 0.835789
LeftShoulder1  7.70839 -11.5868 -44.4851
LeftArm  -11.4782 19.8171 -27.102
LeftForeArm  34.1938 -33.6016 -5.49753
LeftHand  -0.25398 0.0180481 5.50724
RightShoulder  4.42806 7.82302 33.1508
RightArm  -0.617821 -18.5534 39.9205
RightForeArm  -5.30265 22.9123 5.23638
RightHand  -1.47819 3.22665 -20.0602
LeftUpLeg  -10.32 16.0634 -2.72316
LeftLeg  13.8069 12.367 -2.17671
LeftFoot  -5.38569 0.164391 -2.53947
LeftToes  1.06246e-005 4.65854e-005 -8.18502e-006
1037
root  53.4408 39.8392 -7.20247 -4.03088 -52.1095 8.94571
RightUpLeg  -15.0667 -6.03027 -11.3037
RightLeg  41.1464 -7.33075 -7.09956
RightFoot  -7.64508 -0.204928 4.7732
RightToes  0.000482159 0.542163 -0.142577
Spine  12.0418 0.106299 -1.57094
Spine1  4.09146 0.425878 -1.94977
HEad  -7.46953 -8.14891 0.796918
LeftShoulder1  7.58779 -11.4032 -44.3202
LeftArm  -12.0961 21.2393 -27.0399
LeftForeArm  31.7942 -32.0438 -5.25137
LeftHand  -0.25398 0.0180481 5.50724
RightShoulder  4.4217 7.73481 33.3993
RightArm  1.27123 -19.2778 41.0408
RightForeArm  -0.135176 23.4365 5.02748
RightHand  -1.14732 1.93554 -18.3268
LeftUpLeg  -8.46822 10.7933 -2.41018
LeftLeg  10.3224 22.663 -4.01121
LeftFoot  -4.79222 0.0932856 -1.12501
LeftToes  1.06246e-005 4.65854e-005 -8.18502e-006
